<svg xmlns="http://www.w3.org/2000/svg" viewBox="0 0 512 512" width="100%" height="100%">
  <!-- Background Box Rounded Blue (bg-blue-600) -->
  <rect width="512" height="512" rx="128" fill="#2563eb"/>
  
  <!-- Stylized Brain Icon (White) centered inside -->
  <path fill="#ffffff" transform="matrix(0.65 0 0 0.65 89.6 89.6)" d="M384 192c0-88.4-71.6-160-160-160S64 103.6 64 192c0 24.3 5.4 47.3 15.2 68-.6 1.3-1.2 2.6-1.8 3.9C35.9 313.1 8 376.3 8 440c0 22.1 17.9 40 40 40h208c13.3 0 24-10.7 24-24v-88c0-13.3-10.7-24-24-24H208c-8.8 0-16-7.2-16-16v-32c0-17.7 14.3-32 32-32h8c26.5 0 48-21.5 48-48v-16c0-13.3-10.7-24-24-24h-16c-8.8 0-16-7.2-16-16v-16c0-8.8 7.2-16 16-16h16c44.2 0 80 35.8 80 80v8c0 13.3 10.7 24 24 24h32c8.8 0 16 7.2 16 16v16c0 17.7-14.3 32-32 32h-8c-26.5 0-48 21.5-48 48v8c0 13.3 10.7 24 24 24h208c22.1 0 40-17.9 40-40 0-63.7-27.9-126.9-69.4-176.1-.6-1.3-1.2-2.6-1.8-3.9 9.8-20.7 15.2-43.7 15.2-68zm-256 0c0-35.3 28.7-64 64-64h16c8.8 0 16 7.2 16 16v16c0 8.8-7.2 16-16 16H208c-17.7 0-32 14.3-32 32v8c0 13.3-10.7 24-24 24h-32c-8.8 0-16-7.2-16-16v-16zm208-16c0-8.8-7.2-16-16-16h-16c-35.3 0-64 28.7-64 64v16c0 8.8 7.2 16 16 16h32c13.3 0 24-10.7 24-24v-8c0-17.7 14.3-32 32-32h8c8.8 0 16-7.2 16-16zm-64 128c0 8.8-7.2 16-16 16h-16c-26.5 0-48 21.5-48 48v16c0 8.8 7.2 16 16 16h48c13.3 0 24-10.7 24-24v-72zm96 0v72c0 13.3 24 24 24 24h48c8.8 0 16-7.2 16-16v-16c0-26.5-21.5-48-48-48h-16c-8.8 0-16-7.2-16-16z"/>
</svg>
